<svg width="18" height="18" viewBox="0 0 18 18" fill="none" xmlns="http://www.w3.org/2000/svg">
<path fill-rule="evenodd" clip-rule="evenodd" d="M3.56023 13.5099C0.813257 10.7629 0.813257 6.30916 3.56023 3.56218C6.3072 0.81521 10.7609 0.81521 13.5079 3.56218C16.2421 6.2964 16.2548 10.7215 13.546 13.4715C13.5327 13.483 13.5198 13.4951 13.5072 13.5077C13.4945 13.5204 13.4824 13.5334 13.4708 13.5467C10.721 16.2568 6.29488 16.2445 3.56023 13.5099ZM14.016 15.0772C10.6631 17.8937 5.65388 17.7248 2.49957 14.5705C-0.83319 11.2378 -0.83319 5.83428 2.49957 2.50152C5.83233 -0.831237 11.2358 -0.831237 14.5686 2.50152C17.7224 5.65534 17.8917 10.6635 15.0766 14.0164L16.765 15.7049C17.0579 15.9978 17.0579 16.4727 16.765 16.7656C16.4722 17.0585 15.9973 17.0585 15.7044 16.7656L14.016 15.0772Z" fill="#DCDCDC"/>
</svg>
