<svg width="18" height="18" viewBox="0 0 18 18" fill="none" xmlns="http://www.w3.org/2000/svg">
<path fill-rule="evenodd" clip-rule="evenodd" d="M3.56023 13.5099C0.813257 10.7629 0.813257 6.30916 3.56023 3.56218C6.3072 0.81521 10.7609 0.81521 13.5079 3.56218C16.2387 6.29302 16.2548 10.7106 13.556 13.4613C13.5386 13.4758 13.5216 13.4913 13.5052 13.5077C13.4888 13.5241 13.4734 13.541 13.4588 13.5584C10.7082 16.2567 6.29091 16.2405 3.56023 13.5099ZM14.015 15.0781C10.662 17.8937 5.65354 17.7245 2.49957 14.5705C-0.83319 11.2378 -0.83319 5.83428 2.49957 2.50152C5.83233 -0.831237 11.2358 -0.831237 14.5686 2.50152C17.7227 5.65567 17.8917 10.6645 15.0757 14.0175L16.7631 15.7049C17.056 15.9978 17.056 16.4727 16.7631 16.7656C16.4702 17.0585 15.9953 17.0585 15.7024 16.7656L14.015 15.0781Z" fill="#DCDCDC"/>
</svg>
